custom-analysis
version=1
nRows=9
nColumns=42
inDegrees=no

This file contains tibia displacement and acting force.

Units are S.I. units (seconds, meters, Newtons, ...)
Angles are in degrees.

endheader
time	APT	SIT	knee_angle	aACL_R_force	pACL_R_force	aPCL_R_force	pPCL_R_force	aMCL_R_force	mMCL_R_force	pMCL_R_force	aLCL_R_force	mLCL_R_force	pLCL_R_force	aACL_R_length	pACL_R_length	aPCL_R_length	pPCL_R_length	aMCL_R_length	mMCL_R_length	pMCL_R_length	aLCL_R_length	mLCL_R_length	pLCL_R_length	aACL_R_strain	pACL_R_strain	aPCL_R_strain	pPCL_R_strain	aMCL_R_strain	mMCL_R_strain	pMCL_R_strain	aLCL_R_strain	mLCL_R_strain	pLCL_R_strain	femur_lat_meniscii_force_r	femur_lat_meniscii_torque_r	femur_med_meniscii_force_r	femur_med_meniscii_torque_r	femur_lat_tibia_force_r	femur_lat_tibia_torque_r	femur_med_tibia_force_r	femur_med_tibia_torque_r
      0.74795484	      0.00565271	      0.00091875	     89.99998384	     43.74200218	     13.46106026	    830.91449473	    363.28126423	     41.01916544	      1.14536120	      0.00000000	      0.00000000	      0.00000000	      0.00000000	      0.03337266	      0.02631131	      0.03641391	      0.03281461	      0.06273429	      0.06052830	      0.05697302	      0.04874813	      0.04306835	      0.03782180	      0.07634651	      0.03756549	      0.17104209	      0.09062832	      0.08112234	      0.01228902	     -0.06183274	     -0.12914312	     -0.23527299	     -0.27741976	    204.48135081	     83.21105784	     80.79784155	     26.80569093	     53.60569025	      1.92737028	    630.79967234	     11.38519490
      0.74946287	      0.00565241	      0.00091836	     89.99998384	     43.54524345	     13.22790276	    830.68150261	    362.50475320	     40.38605729	      0.49139473	      0.00000000	      0.00000000	      0.00000000	      0.00000000	      0.03337266	      0.02631140	      0.03641448	      0.03281514	      0.06273436	      0.06052841	      0.05697316	      0.04874903	      0.04306927	      0.03782275	      0.07634648	      0.03756899	      0.17106048	      0.09064618	      0.08112356	      0.01229072	     -0.06183050	     -0.12912705	     -0.23525666	     -0.27740159	    208.01181337	     84.64930117	     82.24237584	     27.34870649	     53.62844638	      1.92804786	    635.24531010	     11.46323855
      0.75097090	      0.00565222	      0.00091889	     89.99998384	     43.81928979	     13.56790523	    831.12410541	    363.74242369	     41.31967684	      1.46580005	      0.00000000	      0.00000000	      0.00000000	      0.00000000	      0.03337215	      0.02631090	      0.03641413	      0.03281478	      0.06273356	      0.06052761	      0.05697239	      0.04874901	      0.04306927	      0.03782277	      0.07633006	      0.03754934	      0.17104940	      0.09063412	      0.08110974	      0.01227737	     -0.06184321	     -0.12912739	     -0.23525678	     -0.27740131	    202.59002239	     82.44014996	     80.07317221	     26.52934772	     53.15979248	      1.91142241	    629.17580804	     11.35648738
      0.75230842	      0.00565191	      0.00091832	     89.99998384	     43.52112879	     13.21085315	    830.74289031	    362.53229136	     40.35267932	      0.46455651	      0.00000000	      0.00000000	      0.00000000	      0.00000000	      0.03337227	      0.02631113	      0.03641488	      0.03281550	      0.06273383	      0.06052792	      0.05697273	      0.04875005	      0.04307032	      0.03782386	      0.07633384	      0.03755821	      0.17107348	      0.09065789	      0.08111450	      0.01228260	     -0.06183749	     -0.12910887	     -0.23523800	     -0.27738047	    208.05041516	     84.66476121	     82.29257428	     27.36277426	     53.30712674	      1.91650456	    635.87581993	     11.47421291
      0.75364594	      0.00565171	      0.00091869	     89.99998384	     43.71651201	     13.45426570	    831.06695390	    363.42402196	     41.02168598	      1.16330718	      0.00000000	      0.00000000	      0.00000000	      0.00000000	      0.03337186	      0.02631074	      0.03641467	      0.03281527	      0.06273320	      0.06052730	      0.05697214	      0.04875013	      0.04307042	      0.03782397	      0.07632074	      0.03754311	      0.17106684	      0.09065046	      0.08110367	      0.01227223	     -0.06184727	     -0.12910746	     -0.23523638	     -0.27737831	    204.16213906	     83.08043407	     80.73053447	     26.77846311	     52.94399406	      1.90360908	    631.57590753	     11.39864444
      0.75498345	      0.00565142	      0.00091841	     89.99998384	     43.56522191	     13.27641982	    830.89935767	    362.84916925	     40.54773985	      0.67477853	      0.00000000	      0.00000000	      0.00000000	      0.00000000	      0.03337182	      0.02631078	      0.03641514	      0.03281571	      0.06273320	      0.06052733	      0.05697220	      0.04875087	      0.04307118	      0.03782477	      0.07631926	      0.03754471	      0.17108183	      0.09066503	      0.08110370	      0.01227275	     -0.06184620	     -0.12909409	     -0.23522276	     -0.27736306	    206.82220841	     84.16454400	     81.80682324	     27.18355573	     52.93569111	      1.90321181	    634.95316289	     11.45795783
      0.75664148	      0.00565113	      0.00091880	     89.99998384	     43.76974411	     13.53247299	    831.24800535	    363.79482312	     41.25356638	      1.41254267	      0.00000000	      0.00000000	      0.00000000	      0.00000000	      0.03337134	      0.02631035	      0.03641496	      0.03281551	      0.06273249	      0.06052663	      0.05697154	      0.04875104	      0.04307137	      0.03782498	      0.07630379	      0.03752745	      0.17107613	      0.09065848	      0.08109137	      0.01226106	     -0.06185714	     -0.12909113	     -0.23521953	     -0.27735898	    202.72178156	     82.49375418	     80.15789025	     26.56685360	     52.53095872	      1.88882801	    630.44277015	     11.37871997
      0.75797693	      0.00565079	      0.00091828	     89.99998384	     43.49814498	     13.20728273	    830.90334753	    362.69169405	     40.37297626	      0.50053405	      0.00000000	      0.00000000	      0.00000000	      0.00000000	      0.03337142	      0.02631054	      0.03641567	      0.03281619	      0.06273271	      0.06052690	      0.05697184	      0.04875202	      0.04307237	      0.03782602	      0.07630630	      0.03753492	      0.17109885	      0.09068095	      0.08109526	      0.01226549	     -0.06185216	     -0.12907363	     -0.23520176	     -0.27733917	    207.71138779	     84.52655168	     82.18775450	     27.32859910	     52.64781622	      1.89283684	    636.58053021	     11.48664837
      0.75931239	      0.00565057	      0.00091861	     89.99998384	     43.67448821	     13.42679842	    831.19966099	    363.49974381	     40.98038174	      1.13467449	      0.00000000	      0.00000000	      0.00000000	      0.00000000	      0.03337102	      0.02631018	      0.03641551	      0.03281601	      0.06273212	      0.06052632	      0.05697129	      0.04875212	      0.04307248	      0.03782616	      0.07629359	      0.03752068	      0.17109356	      0.09067499	      0.08108507	      0.01225580	     -0.06186124	     -0.12907176	     -0.23519967	     -0.27733644	    204.20671249	     83.09852138	     80.77652675	     26.80052202	     52.31534030	      1.88102836	    632.69017881	     11.41828542
